<svg xmlns="http://www.w3.org/2000/svg" viewBox="0 0 720 360" role="img" aria-label="A nitrogen-vacancy centre in diamond and how it networks. Panel A, the qubit and optical readout: a nitrogen-vacancy defect in the diamond lattice is excited by a green 532 nanometre laser and emits red fluorescence; the spin state m sub s equals 0, the zero state, glows bright while m sub s equals minus 1, the one state, stays dim, so counting red photons reads the spin. Panel B, networking: two NV nodes each emit a photon entangled with its spin; the two photons meet at a beam splitter, and a single detector click entangles the two distant spins that never met." style="width:100%; height:auto; font-family:sans-serif;">
  <defs>
    <marker id="nvBlue" markerWidth="8" markerHeight="8" refX="4" refY="4" orient="auto-start-reverse"><path d="M0 0 L8 4 L0 8 Z" fill="#4f7cff"/></marker>
    <marker id="nvRed" markerWidth="8" markerHeight="8" refX="4" refY="4" orient="auto-start-reverse"><path d="M0 0 L8 4 L0 8 Z" fill="#ef4444"/></marker>
    <marker id="nvTeal" markerWidth="9" markerHeight="9" refX="4.5" refY="4.5" orient="auto-start-reverse"><path d="M0 0 L9 4.5 L0 9 Z" fill="#14b8a6"/></marker>
  </defs>
  <line x1="360" y1="44" x2="360" y2="334" stroke="currentColor" stroke-width="1" stroke-dasharray="3 5" opacity="0.25"/>

  <!-- ===== PANEL A: qubit + optical readout ===== -->
  <text x="180" y="30" fill="currentColor" font-size="13" font-weight="700" text-anchor="middle">A &#183; the qubit &amp; optical readout</text>
  <!-- diamond lattice with N-V defect -->
  <circle cx="60" cy="92" r="5" fill="currentColor" fill-opacity="0.45"/>
  <circle cx="60" cy="172" r="5" fill="currentColor" fill-opacity="0.45"/>
  <circle cx="150" cy="172" r="5" fill="currentColor" fill-opacity="0.45"/>
  <line x1="105" y1="132" x2="60" y2="92" stroke="currentColor" stroke-width="1.2" opacity="0.35"/>
  <line x1="105" y1="132" x2="60" y2="172" stroke="currentColor" stroke-width="1.2" opacity="0.35"/>
  <line x1="105" y1="132" x2="150" y2="172" stroke="currentColor" stroke-width="1.2" opacity="0.35"/>
  <line x1="105" y1="132" x2="150" y2="92" stroke="currentColor" stroke-width="1.2" stroke-dasharray="3 3" opacity="0.45"/>
  <circle cx="105" cy="132" r="10" fill="currentColor" fill-opacity="0.15" stroke="currentColor" stroke-width="2"/>
  <text x="105" y="136" fill="currentColor" font-size="10" text-anchor="middle">N</text>
  <circle cx="150" cy="92" r="9" fill="none" stroke="currentColor" stroke-width="1.4" stroke-dasharray="3 2.5"/>
  <text x="150" y="96" fill="currentColor" font-size="9.5" text-anchor="middle">V</text>
  <text x="100" y="200" fill="currentColor" font-size="11" text-anchor="middle">N&#8211;V center in diamond</text>
  <!-- green pump in -->
  <line x1="206" y1="172" x2="124" y2="138" stroke="#14b8a6" stroke-width="2" marker-end="url(#nvTeal)"/>
  <text x="214" y="182" fill="#14b8a6" font-size="10" text-anchor="start">green laser</text>
  <text x="214" y="194" fill="#14b8a6" font-size="9.5" text-anchor="start">(532 nm)</text>
  <!-- red fluorescence out -->
  <path d="M122 124 q 14 -12 26 -4 q 12 8 24 -6 q 10 -10 22 -4" fill="none" stroke="#ef4444" stroke-width="2" marker-end="url(#nvRed)"/>
  <text x="222" y="96" fill="#ef4444" font-size="10" text-anchor="start">637 nm glow</text>
  <!-- readout cue -->
  <text x="180" y="240" fill="currentColor" font-size="11.5" font-weight="700" text-anchor="middle">spin-dependent fluorescence</text>
  <text x="48" y="273" fill="currentColor" font-size="11" text-anchor="start">m<tspan dy="3" font-size="8">s</tspan><tspan dy="-3">=0 = |0&#x27E9;</tspan></text>
  <circle cx="232" cy="268" r="9" fill="#ef4444" fill-opacity="0.85"/>
  <text x="248" y="272" fill="#ef4444" font-size="10.5" text-anchor="start">glows bright</text>
  <text x="48" y="313" fill="currentColor" font-size="11" text-anchor="start">m<tspan dy="3" font-size="8">s</tspan><tspan dy="-3">=&#8722;1 = |1&#x27E9;</tspan></text>
  <circle cx="232" cy="308" r="9" fill="#ef4444" fill-opacity="0.25" stroke="#ef4444" stroke-width="1" stroke-opacity="0.5"/>
  <text x="248" y="312" fill="#ef4444" font-size="10.5" text-anchor="start">stays dim</text>
  <text x="180" y="346" fill="currentColor" font-size="11" font-style="italic" text-anchor="middle">count the red photons &#8594; read the spin</text>

  <!-- ===== PANEL B: networking ===== -->
  <text x="540" y="30" fill="currentColor" font-size="13" font-weight="700" text-anchor="middle">B &#183; a click entangles two distant nodes</text>
  <path d="M427 126 Q 540 60 657 126" fill="none" stroke="#14b8a6" stroke-width="1.6" stroke-dasharray="6 4" opacity="0.9"/>
  <text x="540" y="52" fill="#14b8a6" font-size="11.5" text-anchor="middle">entangled &#8212; two spins that never met</text>
  <!-- node A -->
  <rect x="405" y="128" width="44" height="44" rx="6" fill="currentColor" fill-opacity="0.04" stroke="#14b8a6" stroke-width="1.6"/>
  <line x1="427" y1="164" x2="427" y2="138" stroke="#14b8a6" stroke-width="2.6" marker-end="url(#nvTeal)"/>
  <text x="427" y="190" fill="currentColor" font-size="10.5" text-anchor="middle">NV node A</text>
  <!-- node B -->
  <rect x="635" y="128" width="44" height="44" rx="6" fill="currentColor" fill-opacity="0.04" stroke="#14b8a6" stroke-width="1.6"/>
  <line x1="657" y1="138" x2="657" y2="164" stroke="#14b8a6" stroke-width="2.6" marker-end="url(#nvTeal)"/>
  <text x="657" y="190" fill="currentColor" font-size="10.5" text-anchor="middle">NV node B</text>
  <!-- photons to beamsplitter -->
  <path d="M451 150 q 13 -9 26 0 q 13 9 26 0" fill="none" stroke="#4f7cff" stroke-width="1.8" marker-end="url(#nvBlue)"/>
  <path d="M633 150 q -13 -9 -26 0 q -13 9 -26 0" fill="none" stroke="#4f7cff" stroke-width="1.8" marker-end="url(#nvBlue)"/>
  <text x="488" y="142" fill="#4f7cff" font-size="9.5" text-anchor="middle">photon</text>
  <text x="592" y="142" fill="#4f7cff" font-size="9.5" text-anchor="middle">photon</text>
  <!-- beam splitter -->
  <polygon points="540,136 556,150 540,164 524,150" fill="currentColor" fill-opacity="0.06" stroke="currentColor" stroke-width="1.4"/>
  <text x="540" y="120" fill="currentColor" font-size="9.5" text-anchor="middle">beam splitter</text>
  <!-- to detector -->
  <line x1="540" y1="166" x2="540" y2="196" stroke="#4f7cff" stroke-width="1.8" marker-end="url(#nvBlue)"/>
  <rect x="515" y="197" width="50" height="26" rx="3" fill="currentColor" fill-opacity="0.05" stroke="currentColor" stroke-width="1.5"/>
  <text x="540" y="214" fill="currentColor" font-size="10.5" text-anchor="middle">detector</text>
  <text x="540" y="246" fill="#ef4444" font-size="12.5" font-weight="700" text-anchor="middle">click!</text>
  <text x="540" y="276" fill="currentColor" font-size="11" font-style="italic" text-anchor="middle">one click &#8594; both spins entangled</text>
</svg>
