<svg xmlns="http://www.w3.org/2000/svg" viewBox="0 0 720 388" role="img" aria-label="Fusion of two small entangled resource states into a larger cluster state. On the left, resource state A is a small graph of teal nodes joined by edges; on the right, resource state B is a mirror-image small graph. The innermost qubit of each, drawn as a hollow node with an amber cross, is sent into a central fusion measurement, a dashed amber box labelled fusion, approximately a Bell measurement, which consumes both of those photons. A downward arrow leads to a single larger cluster state at the bottom. The two fused photons are gone; their former neighbours are now joined by one new amber edge, leaving six nodes." style="width:100%; height:auto; font-family:sans-serif;">
  <defs>
    <marker id="p2a" markerWidth="9" markerHeight="9" refX="4.5" refY="4.5" orient="auto"><path d="M0 0 L9 4.5 L0 9 Z" fill="currentColor"/></marker>
  </defs>
  <!-- resource state A -->
  <text x="160" y="48" fill="#14b8a6" font-size="13" text-anchor="middle">resource state A</text>
  <line x1="120" y1="85" x2="195" y2="110" stroke="currentColor" stroke-width="1.6"/>
  <line x1="120" y1="135" x2="195" y2="110" stroke="currentColor" stroke-width="1.6"/>
  <line x1="195" y1="110" x2="300" y2="110" stroke="currentColor" stroke-width="1.6"/>
  <circle cx="120" cy="85" r="8" fill="#14b8a6" fill-opacity="0.30" stroke="#14b8a6" stroke-width="2"/>
  <circle cx="120" cy="135" r="8" fill="#14b8a6" fill-opacity="0.30" stroke="#14b8a6" stroke-width="2"/>
  <circle cx="195" cy="110" r="8" fill="#14b8a6" fill-opacity="0.30" stroke="#14b8a6" stroke-width="2"/>
  <!-- A's fused qubit: consumed (hollow + amber cross) -->
  <circle cx="300" cy="110" r="9" fill="none" stroke="#14b8a6" stroke-width="1.6" opacity="0.7"/>
  <line x1="294" y1="104" x2="306" y2="116" stroke="#e0a106" stroke-width="1.8"/>
  <line x1="294" y1="116" x2="306" y2="104" stroke="#e0a106" stroke-width="1.8"/>
  <!-- resource state B (mirror) -->
  <text x="560" y="48" fill="#14b8a6" font-size="13" text-anchor="middle">resource state B</text>
  <line x1="600" y1="85" x2="525" y2="110" stroke="currentColor" stroke-width="1.6"/>
  <line x1="600" y1="135" x2="525" y2="110" stroke="currentColor" stroke-width="1.6"/>
  <line x1="525" y1="110" x2="420" y2="110" stroke="currentColor" stroke-width="1.6"/>
  <circle cx="600" cy="85" r="8" fill="#14b8a6" fill-opacity="0.30" stroke="#14b8a6" stroke-width="2"/>
  <circle cx="600" cy="135" r="8" fill="#14b8a6" fill-opacity="0.30" stroke="#14b8a6" stroke-width="2"/>
  <circle cx="525" cy="110" r="8" fill="#14b8a6" fill-opacity="0.30" stroke="#14b8a6" stroke-width="2"/>
  <!-- B's fused qubit: consumed (hollow + amber cross) -->
  <circle cx="420" cy="110" r="9" fill="none" stroke="#14b8a6" stroke-width="1.6" opacity="0.7"/>
  <line x1="414" y1="104" x2="426" y2="116" stroke="#e0a106" stroke-width="1.8"/>
  <line x1="414" y1="116" x2="426" y2="104" stroke="#e0a106" stroke-width="1.8"/>
  <!-- fusion measurement box -->
  <line x1="309" y1="110" x2="330" y2="110" stroke="#e0a106" stroke-width="1.8" stroke-dasharray="4 3"/>
  <line x1="390" y1="110" x2="411" y2="110" stroke="#e0a106" stroke-width="1.8" stroke-dasharray="4 3"/>
  <rect x="330" y="86" width="60" height="48" rx="5" fill="#e0a106" fill-opacity="0.08" stroke="#e0a106" stroke-width="1.8" stroke-dasharray="5 4"/>
  <text x="360" y="108" fill="#e0a106" font-size="12.5" text-anchor="middle">fusion</text>
  <text x="360" y="124" fill="#e0a106" font-size="9.5" text-anchor="middle">&#8776; Bell meas.</text>
  <text x="360" y="156" fill="#e0a106" font-size="10.5" text-anchor="middle">both photons consumed</text>
  <!-- arrow down -->
  <line x1="360" y1="166" x2="360" y2="214" stroke="currentColor" stroke-width="1.6" marker-end="url(#p2a)"/>
  <text x="360" y="240" fill="currentColor" font-size="13" text-anchor="middle" font-weight="600">one larger cluster state</text>
  <!-- merged cluster bottom: 6 surviving nodes, neighbours welded -->
  <line x1="150" y1="290" x2="220" y2="310" stroke="currentColor" stroke-width="1.6"/>
  <line x1="150" y1="330" x2="220" y2="310" stroke="currentColor" stroke-width="1.6"/>
  <line x1="220" y1="310" x2="500" y2="310" stroke="#e0a106" stroke-width="2.8"/>
  <line x1="500" y1="310" x2="570" y2="290" stroke="currentColor" stroke-width="1.6"/>
  <line x1="500" y1="310" x2="570" y2="330" stroke="currentColor" stroke-width="1.6"/>
  <circle cx="150" cy="290" r="8" fill="#14b8a6" fill-opacity="0.30" stroke="#14b8a6" stroke-width="2"/>
  <circle cx="150" cy="330" r="8" fill="#14b8a6" fill-opacity="0.30" stroke="#14b8a6" stroke-width="2"/>
  <circle cx="220" cy="310" r="8" fill="#14b8a6" fill-opacity="0.30" stroke="#14b8a6" stroke-width="2"/>
  <circle cx="500" cy="310" r="8" fill="#14b8a6" fill-opacity="0.30" stroke="#14b8a6" stroke-width="2"/>
  <circle cx="570" cy="290" r="8" fill="#14b8a6" fill-opacity="0.30" stroke="#14b8a6" stroke-width="2"/>
  <circle cx="570" cy="330" r="8" fill="#14b8a6" fill-opacity="0.30" stroke="#14b8a6" stroke-width="2"/>
  <text x="360" y="300" fill="#e0a106" font-size="10.5" text-anchor="middle">new link</text>
  <text x="360" y="372" fill="currentColor" font-size="12.5" text-anchor="middle">the two fused photons are gone &#8212; their former neighbours inherit the new bond</text>
</svg>
