<svg xmlns="http://www.w3.org/2000/svg" viewBox="0 0 720 380" role="img" aria-label="Fusion of two small entangled resource states into a larger cluster state. On the left, resource state A is a small graph of teal nodes joined by edges; on the right, resource state B is a mirror-image small graph. One qubit from each is sent into a central fusion measurement, drawn as a dashed amber box labelled fusion, approximately a Bell measurement. A downward arrow leads to a single larger cluster state at the bottom, where A's graph and B's graph are now joined by one new amber edge created by the fusion." style="width:100%; height:auto; font-family:sans-serif;">
  <defs>
    <marker id="p2a" markerWidth="9" markerHeight="9" refX="4.5" refY="4.5" orient="auto"><path d="M0 0 L9 4.5 L0 9 Z" fill="currentColor"/></marker>
  </defs>
  <!-- resource state A -->
  <text x="160" y="48" fill="#14b8a6" font-size="13" text-anchor="middle">resource state A</text>
  <line x1="120" y1="85" x2="195" y2="110" stroke="currentColor" stroke-width="1.6"/>
  <line x1="120" y1="135" x2="195" y2="110" stroke="currentColor" stroke-width="1.6"/>
  <line x1="195" y1="110" x2="300" y2="110" stroke="currentColor" stroke-width="1.6"/>
  <circle cx="120" cy="85" r="8" fill="#14b8a6" fill-opacity="0.30" stroke="#14b8a6" stroke-width="2"/>
  <circle cx="120" cy="135" r="8" fill="#14b8a6" fill-opacity="0.30" stroke="#14b8a6" stroke-width="2"/>
  <circle cx="195" cy="110" r="8" fill="#14b8a6" fill-opacity="0.30" stroke="#14b8a6" stroke-width="2"/>
  <circle cx="300" cy="110" r="9" fill="#14b8a6" fill-opacity="0.30" stroke="#14b8a6" stroke-width="2.4"/>
  <!-- resource state B (mirror) -->
  <text x="560" y="48" fill="#14b8a6" font-size="13" text-anchor="middle">resource state B</text>
  <line x1="600" y1="85" x2="525" y2="110" stroke="currentColor" stroke-width="1.6"/>
  <line x1="600" y1="135" x2="525" y2="110" stroke="currentColor" stroke-width="1.6"/>
  <line x1="525" y1="110" x2="420" y2="110" stroke="currentColor" stroke-width="1.6"/>
  <circle cx="600" cy="85" r="8" fill="#14b8a6" fill-opacity="0.30" stroke="#14b8a6" stroke-width="2"/>
  <circle cx="600" cy="135" r="8" fill="#14b8a6" fill-opacity="0.30" stroke="#14b8a6" stroke-width="2"/>
  <circle cx="525" cy="110" r="8" fill="#14b8a6" fill-opacity="0.30" stroke="#14b8a6" stroke-width="2"/>
  <circle cx="420" cy="110" r="9" fill="#14b8a6" fill-opacity="0.30" stroke="#14b8a6" stroke-width="2.4"/>
  <!-- fusion measurement box -->
  <line x1="309" y1="110" x2="330" y2="110" stroke="#e0a106" stroke-width="1.8" stroke-dasharray="4 3"/>
  <line x1="390" y1="110" x2="411" y2="110" stroke="#e0a106" stroke-width="1.8" stroke-dasharray="4 3"/>
  <rect x="330" y="86" width="60" height="48" rx="5" fill="#e0a106" fill-opacity="0.08" stroke="#e0a106" stroke-width="1.8" stroke-dasharray="5 4"/>
  <text x="360" y="108" fill="#e0a106" font-size="12.5" text-anchor="middle">fusion</text>
  <text x="360" y="124" fill="#e0a106" font-size="9.5" text-anchor="middle">&#8776; Bell meas.</text>
  <!-- arrow down -->
  <line x1="360" y1="150" x2="360" y2="208" stroke="currentColor" stroke-width="1.6" marker-end="url(#p2a)"/>
  <text x="360" y="234" fill="currentColor" font-size="13" text-anchor="middle" font-weight="600">one larger cluster state</text>
  <!-- merged cluster bottom -->
  <line x1="150" y1="285" x2="220" y2="305" stroke="currentColor" stroke-width="1.6"/>
  <line x1="150" y1="325" x2="220" y2="305" stroke="currentColor" stroke-width="1.6"/>
  <line x1="220" y1="305" x2="290" y2="305" stroke="currentColor" stroke-width="1.6"/>
  <line x1="290" y1="305" x2="430" y2="305" stroke="#e0a106" stroke-width="2.8"/>
  <line x1="430" y1="305" x2="500" y2="305" stroke="currentColor" stroke-width="1.6"/>
  <line x1="500" y1="305" x2="570" y2="285" stroke="currentColor" stroke-width="1.6"/>
  <line x1="500" y1="305" x2="570" y2="325" stroke="currentColor" stroke-width="1.6"/>
  <circle cx="150" cy="285" r="8" fill="#14b8a6" fill-opacity="0.30" stroke="#14b8a6" stroke-width="2"/>
  <circle cx="150" cy="325" r="8" fill="#14b8a6" fill-opacity="0.30" stroke="#14b8a6" stroke-width="2"/>
  <circle cx="220" cy="305" r="8" fill="#14b8a6" fill-opacity="0.30" stroke="#14b8a6" stroke-width="2"/>
  <circle cx="290" cy="305" r="8" fill="#14b8a6" fill-opacity="0.30" stroke="#14b8a6" stroke-width="2"/>
  <circle cx="430" cy="305" r="8" fill="#14b8a6" fill-opacity="0.30" stroke="#14b8a6" stroke-width="2"/>
  <circle cx="500" cy="305" r="8" fill="#14b8a6" fill-opacity="0.30" stroke="#14b8a6" stroke-width="2"/>
  <circle cx="570" cy="285" r="8" fill="#14b8a6" fill-opacity="0.30" stroke="#14b8a6" stroke-width="2"/>
  <circle cx="570" cy="325" r="8" fill="#14b8a6" fill-opacity="0.30" stroke="#14b8a6" stroke-width="2"/>
  <text x="360" y="296" fill="#e0a106" font-size="10.5" text-anchor="middle">new link</text>
  <text x="360" y="364" fill="currentColor" font-size="12.5" text-anchor="middle">each fusion is probabilistic (&#8804; ~50%) &#8212; redundancy and multiplexing repair the failures</text>
</svg>
