<svg xmlns="http://www.w3.org/2000/svg" viewBox="0 0 720 340" role="img" aria-label="A measurement-induced two-qubit entangling gate on dual-rail photonic qubits. Two data qubits, each a single photon in superposition over its pair of rails, enter a linear-optics network together with two ancilla helper photons. Inside the network, beam splitters mix the rails, including a coupling between a data rail and an ancilla rail. The two ancilla modes leave the network into photon-number detectors; their clicks feed forward classically to a phase correction on the data rails. The two data qubits emerge entangled, but only when the detectors herald success, with probability less than one." style="width:100%; height:auto; font-family:sans-serif;">
  <defs>
    <marker id="p1a" markerWidth="8" markerHeight="8" refX="6" refY="4" orient="auto"><path d="M0 0 L8 4 L0 8 Z" fill="currentColor"/></marker>
  </defs>
  <!-- qubit 1 rails in -->
  <line x1="60" y1="68" x2="250" y2="68" stroke="currentColor" stroke-width="1.6"/>
  <line x1="60" y1="100" x2="250" y2="100" stroke="currentColor" stroke-width="1.6"/>
  <circle cx="98" cy="68" r="7" fill="#14b8a6" fill-opacity="0.16" stroke="#14b8a6" stroke-width="1.7"/>
  <circle cx="98" cy="100" r="7" fill="#14b8a6" fill-opacity="0.16" stroke="#14b8a6" stroke-width="1.7"/>
  <path d="M84 68 Q76 84 84 100" fill="none" stroke="#14b8a6" stroke-width="1.2" opacity="0.75"/>
  <text x="60" y="54" fill="#14b8a6" font-size="12">qubit 1 &#160; &#x3B1;|10&#x27E9;+&#x3B2;|01&#x27E9;</text>
  <text x="52" y="72" fill="currentColor" font-size="10" text-anchor="end">a&#8321;</text>
  <text x="52" y="104" fill="currentColor" font-size="10" text-anchor="end">b&#8321;</text>
  <!-- qubit 2 rails in -->
  <line x1="60" y1="150" x2="250" y2="150" stroke="currentColor" stroke-width="1.6"/>
  <line x1="60" y1="182" x2="250" y2="182" stroke="currentColor" stroke-width="1.6"/>
  <circle cx="98" cy="150" r="7" fill="#14b8a6" fill-opacity="0.16" stroke="#14b8a6" stroke-width="1.7"/>
  <circle cx="98" cy="182" r="7" fill="#14b8a6" fill-opacity="0.16" stroke="#14b8a6" stroke-width="1.7"/>
  <path d="M84 150 Q76 166 84 182" fill="none" stroke="#14b8a6" stroke-width="1.2" opacity="0.75"/>
  <text x="60" y="136" fill="#14b8a6" font-size="12">qubit 2 &#160; &#x3B3;|10&#x27E9;+&#x3B4;|01&#x27E9;</text>
  <text x="52" y="154" fill="currentColor" font-size="10" text-anchor="end">a&#8322;</text>
  <text x="52" y="186" fill="currentColor" font-size="10" text-anchor="end">b&#8322;</text>
  <!-- ancilla rails in -->
  <line x1="60" y1="235" x2="250" y2="235" stroke="currentColor" stroke-width="1.6"/>
  <line x1="60" y1="270" x2="250" y2="270" stroke="currentColor" stroke-width="1.6"/>
  <circle cx="98" cy="235" r="7" fill="#e0a106" fill-opacity="0.32" stroke="#e0a106" stroke-width="2"/>
  <circle cx="98" cy="270" r="7" fill="#e0a106" fill-opacity="0.32" stroke="#e0a106" stroke-width="2"/>
  <text x="60" y="300" fill="#e0a106" font-size="12">ancilla photons (helpers)</text>
  <!-- network box -->
  <rect x="250" y="50" width="150" height="246" rx="6" fill="none" stroke="#4f7cff" stroke-width="1.8"/>
  <line x1="250" y1="68" x2="400" y2="68" stroke="currentColor" stroke-width="1.6" opacity="0.5"/>
  <line x1="250" y1="100" x2="400" y2="100" stroke="currentColor" stroke-width="1.6" opacity="0.5"/>
  <line x1="250" y1="150" x2="400" y2="150" stroke="currentColor" stroke-width="1.6" opacity="0.5"/>
  <line x1="250" y1="182" x2="400" y2="182" stroke="currentColor" stroke-width="1.6" opacity="0.5"/>
  <line x1="250" y1="235" x2="400" y2="235" stroke="currentColor" stroke-width="1.6" opacity="0.5"/>
  <line x1="250" y1="270" x2="400" y2="270" stroke="currentColor" stroke-width="1.6" opacity="0.5"/>
  <!-- beam-splitter glyphs inside the network -->
  <line x1="284" y1="76" x2="300" y2="92" stroke="currentColor" stroke-width="1.8"/>
  <line x1="318" y1="118" x2="334" y2="132" stroke="currentColor" stroke-width="1.8"/>
  <line x1="292" y1="158" x2="308" y2="174" stroke="currentColor" stroke-width="1.8"/>
  <line x1="306" y1="244" x2="322" y2="261" stroke="currentColor" stroke-width="1.8"/>
  <!-- the crucial data<->ancilla coupling: the gate's one real interaction -->
  <rect x="340" y="200" width="18" height="18" rx="3" fill="#4f7cff" fill-opacity="0.16" stroke="#4f7cff" stroke-width="2.2"/>
  <line x1="343" y1="203" x2="355" y2="215" stroke="currentColor" stroke-width="2"/>
  <line x1="349" y1="200" x2="349" y2="182" stroke="currentColor" stroke-width="1.6"/>
  <line x1="349" y1="218" x2="349" y2="300" stroke="#4f7cff" stroke-width="1.1" stroke-dasharray="4 3"/>
  <text x="349" y="318" fill="#4f7cff" font-size="11" text-anchor="middle">data&#8211;ancilla coupling</text>
  <text x="312" y="62" fill="#4f7cff" font-size="11" text-anchor="middle">linear-optics network</text>
  <!-- data outputs -->
  <line x1="400" y1="68" x2="638" y2="68" stroke="currentColor" stroke-width="1.6"/>
  <line x1="400" y1="100" x2="638" y2="100" stroke="currentColor" stroke-width="1.6"/>
  <line x1="400" y1="150" x2="638" y2="150" stroke="currentColor" stroke-width="1.6"/>
  <line x1="400" y1="182" x2="638" y2="182" stroke="currentColor" stroke-width="1.6"/>
  <!-- correction box across data rails -->
  <rect x="470" y="58" width="34" height="134" rx="4" fill="none" stroke="currentColor" stroke-width="1.6"/>
  <text x="487" y="130" fill="currentColor" font-size="15" text-anchor="middle">&#x3C6;</text>
  <text x="487" y="50" fill="currentColor" font-size="9.5" text-anchor="middle">correction</text>
  <!-- entanglement bracket on the right -->
  <path d="M636 68 Q652 68 652 125 Q652 182 636 182" fill="none" stroke="#14b8a6" stroke-width="1.8"/>
  <text x="658" y="121" fill="#14b8a6" font-size="11.5">entangled</text>
  <text x="658" y="136" fill="#14b8a6" font-size="11.5">pair</text>
  <!-- ancilla outputs to detectors -->
  <line x1="400" y1="235" x2="452" y2="235" stroke="currentColor" stroke-width="1.6"/>
  <line x1="400" y1="270" x2="452" y2="270" stroke="currentColor" stroke-width="1.6"/>
  <path d="M452 224 L452 246 L476 235 Z" fill="#e0a106" fill-opacity="0.25" stroke="#e0a106" stroke-width="1.8"/>
  <path d="M452 259 L452 281 L476 270 Z" fill="#e0a106" fill-opacity="0.25" stroke="#e0a106" stroke-width="1.8"/>
  <text x="461" y="239" fill="#e0a106" font-size="12" text-anchor="middle">D</text>
  <text x="461" y="274" fill="#e0a106" font-size="12" text-anchor="middle">D</text>
  <text x="452" y="302" fill="#e0a106" font-size="11">photon-number detection</text>
  <!-- feed-forward from both detectors up into the correction box -->
  <line x1="476" y1="235" x2="487" y2="235" stroke="currentColor" stroke-width="1.4" stroke-dasharray="5 4" opacity="0.9"/>
  <polyline points="476,270 487,270 487,193" fill="none" stroke="currentColor" stroke-width="1.4" stroke-dasharray="5 4" marker-end="url(#p1a)" opacity="0.9"/>
  <text x="497" y="214" fill="currentColor" font-size="11" text-anchor="start">feed-forward</text>
  <text x="656" y="206" fill="currentColor" font-size="11.5" text-anchor="start">heralded</text>
  <text x="656" y="222" fill="currentColor" font-size="11.5" text-anchor="start">p &lt; 1</text>
</svg>
