<svg xmlns="http://www.w3.org/2000/svg" viewBox="0 0 720 420" role="img" aria-label="A Mølmer–Sørensen gate in three steps. First, a frequency axis shows two laser tones placed next to the red and blue motional sidebands, each a small detuning from its sideband and far from the carrier. Second, the resulting bichromatic field washes over both trapped ions and pushes their one shared motional mode. Third, the mode traces a closed loop in phase space whose enclosed area becomes a geometric phase that entangles the two ions, leaving the motion cold." style="width:100%; height:auto; font-family:sans-serif;">
  <defs>
    <marker id="f3ax" markerWidth="8" markerHeight="8" refX="4" refY="4" orient="auto"><path d="M0 0 L8 4 L0 8 Z" fill="currentColor"/></marker>
    <marker id="f3sp" markerWidth="7" markerHeight="7" refX="3.5" refY="3.5" orient="auto"><path d="M0 0 L7 3.5 L0 7 Z" fill="#14b8a6"/></marker>
    <marker id="f3dir" markerWidth="9" markerHeight="9" refX="4.5" refY="4.5" orient="auto"><path d="M0 0 L9 4.5 L0 9 Z" fill="#e0a106"/></marker>
  </defs>
  <!-- ============ 1. FREQUENCY INSET ============ -->
  <text x="360" y="34" fill="currentColor" font-size="13" text-anchor="middle">the two tones sit by the motional sidebands &#8212; not by the carrier</text>
  <line x1="128" y1="84" x2="598" y2="84" stroke="currentColor" stroke-width="1.4" marker-end="url(#f3ax)"/>
  <text x="606" y="88" fill="currentColor" font-size="10" text-anchor="start" opacity="0.7">frequency</text>
  <!-- carrier -->
  <line x1="360" y1="76" x2="360" y2="92" stroke="currentColor" stroke-width="1.2"/>
  <text x="360" y="70" fill="currentColor" font-size="12" text-anchor="middle">&#x3C9;&#8320;</text>
  <!-- red sideband + tone -->
  <line x1="228" y1="76" x2="228" y2="92" stroke="currentColor" stroke-width="1.2"/>
  <text x="228" y="70" fill="currentColor" font-size="11.5" text-anchor="middle">&#x3C9;&#8320;&#8722;&#x3BD;</text>
  <line x1="246" y1="84" x2="246" y2="104" stroke="#ef4444" stroke-width="2"/>
  <circle cx="246" cy="107" r="3" fill="#ef4444"/>
  <text x="237" y="100" fill="#ef4444" font-size="10" text-anchor="middle">&#x3B4;</text>
  <text x="246" y="122" fill="#ef4444" font-size="10" text-anchor="middle">red tone</text>
  <!-- blue sideband + tone -->
  <line x1="492" y1="76" x2="492" y2="92" stroke="currentColor" stroke-width="1.2"/>
  <text x="492" y="70" fill="currentColor" font-size="11.5" text-anchor="middle">&#x3C9;&#8320;+&#x3BD;</text>
  <line x1="474" y1="84" x2="474" y2="104" stroke="#4f7cff" stroke-width="2"/>
  <circle cx="474" cy="107" r="3" fill="#4f7cff"/>
  <text x="483" y="100" fill="#4f7cff" font-size="10" text-anchor="middle">&#x3B4;</text>
  <text x="474" y="122" fill="#4f7cff" font-size="10" text-anchor="middle">blue tone</text>
  <!-- ============ 2. ION SCENE ============ -->
  <text x="360" y="162" fill="currentColor" font-size="12.5" text-anchor="middle">one bichromatic field pushes both ions through the one shared mode</text>
  <rect x="110" y="178" width="500" height="18" rx="9" fill="#ef4444" fill-opacity="0.16"/>
  <rect x="110" y="200" width="500" height="18" rx="9" fill="#4f7cff" fill-opacity="0.16"/>
  <!-- ions with spin states -->
  <circle cx="170" cy="198" r="20" fill="#14b8a6" fill-opacity="0.22" stroke="#14b8a6" stroke-width="2.6"/>
  <circle cx="550" cy="198" r="20" fill="#14b8a6" fill-opacity="0.22" stroke="#14b8a6" stroke-width="2.6"/>
  <line x1="170" y1="189" x2="170" y2="207" stroke="#14b8a6" stroke-width="1.6" marker-start="url(#f3sp)" marker-end="url(#f3sp)"/>
  <line x1="550" y1="189" x2="550" y2="207" stroke="#14b8a6" stroke-width="1.6" marker-start="url(#f3sp)" marker-end="url(#f3sp)"/>
  <!-- shared motional mode (the bus) -->
  <path d="M194 198 q 12 -9 24 0 q 12 9 24 0 q 12 -9 24 0 q 12 9 24 0 q 12 -9 24 0 q 12 9 24 0 q 12 -9 24 0 q 12 9 24 0 q 12 -9 24 0 q 12 9 24 0 q 12 -9 24 0 q 12 9 24 0 q 12 -9 24 0 q 12 9 24 0" fill="none" stroke="currentColor" stroke-width="1.8" opacity="0.55"/>
  <text x="170" y="240" fill="#14b8a6" font-size="12.5" text-anchor="middle">ion 1</text>
  <text x="550" y="240" fill="#14b8a6" font-size="12.5" text-anchor="middle">ion 2</text>
  <text x="360" y="240" fill="currentColor" font-size="12" text-anchor="middle">shared motional mode = the bus</text>
  <!-- entanglement arc -->
  <path d="M192 216 Q 360 262 528 216" fill="none" stroke="#14b8a6" stroke-width="2" stroke-dasharray="5 4"/>
  <text x="360" y="282" fill="#14b8a6" font-size="12.5" text-anchor="middle">the two ions end up entangled &#8212; and they never touched</text>
  <!-- ============ 3. PHASE-SPACE LOOP ============ -->
  <text x="360" y="318" fill="currentColor" font-size="12" text-anchor="middle">the gate = a closed loop in phase space; its enclosed area is the phase</text>
  <line x1="322" y1="372" x2="406" y2="372" stroke="currentColor" stroke-width="1.4" marker-end="url(#f3ax)"/>
  <text x="414" y="376" fill="currentColor" font-size="11" text-anchor="start">X</text>
  <line x1="360" y1="406" x2="360" y2="342" stroke="currentColor" stroke-width="1.4" marker-end="url(#f3ax)"/>
  <text x="360" y="336" fill="currentColor" font-size="11" text-anchor="middle">P</text>
  <ellipse cx="360" cy="372" rx="38" ry="22" fill="#e0a106" fill-opacity="0.12" stroke="#e0a106" stroke-width="2"/>
  <path d="M398 366 a 38 22 0 0 1 -11 17" fill="none" stroke="#e0a106" stroke-width="2" marker-end="url(#f3dir)"/>
  <text x="430" y="360" fill="#e0a106" font-size="10.5" text-anchor="start">enclosed</text>
  <text x="430" y="373" fill="#e0a106" font-size="10.5" text-anchor="start">area &#8594;</text>
  <text x="430" y="386" fill="#e0a106" font-size="10.5" text-anchor="start">phase</text>
  <text x="360" y="416" fill="currentColor" font-size="11.5" text-anchor="middle">loop closes &#8594; motion left cold, spins entangled (Bell state)</text>
</svg>
